<?xml version="1.0" encoding="UTF-8"?>
<svg xmlns="http://www.w3.org/2000/svg" xmlns:xlink="http://www.w3.org/1999/xlink" version="1.1" id="Ebene_1" x="0px" y="0px" width="600px" height="600px" viewBox="0 0 600 600" xml:space="preserve">
<rect x="-4.8" y="-5.2" width="610.4" height="610.4"></rect>
<g>
	<g>
		<g>
			<path fill="#FFFFFF" d="M322.2,348.9v-23.6h2.1v21.6h8.1v2H322.2z"></path>
			<path fill="#FFFFFF" d="M329.9,333.4l3.1-8.7l2.4,1l-4.2,8.2L329.9,333.4z"></path>
			<path fill="#FFFFFF" d="M342.1,334.6v7.1c0,2.2,0.3,3.7,0.9,4.6c0.6,0.9,1.7,1.3,3.1,1.3c1.5,0,2.5-0.5,3.1-1.4     c0.6-0.9,1-2.4,1-4.6v-7.1h2v8.2c0,2.2-0.5,3.9-1.5,5.1c-1,1.1-2.5,1.7-4.5,1.7c-2,0-3.5-0.6-4.5-1.7c-1-1.1-1.5-2.8-1.5-5.1     v-8.2H342.1z"></path>
			<path fill="#FFFFFF" d="M357.5,348.9v-14.3h1.9v2.2c0.6-0.9,1.3-1.6,2.1-2.1s1.8-0.7,2.9-0.7c1.6,0,2.9,0.5,3.8,1.4     c0.9,0.9,1.4,2.2,1.4,3.8v9.7h-2v-8.8c0-1.4-0.3-2.5-0.9-3.2c-0.6-0.7-1.5-1-2.8-1c-1.5,0-2.6,0.4-3.3,1.3     c-0.7,0.9-1.1,2.3-1.1,4.2v7.5H357.5z"></path>
			<path fill="#FFFFFF" d="M374.3,329c0-0.4,0.2-0.8,0.5-1.1c0.3-0.3,0.7-0.4,1.1-0.4s0.8,0.1,1.1,0.4c0.3,0.3,0.5,0.7,0.5,1.1     c0,0.4-0.1,0.8-0.4,1.1c-0.3,0.3-0.7,0.4-1.1,0.4c-0.4,0-0.8-0.1-1.1-0.4C374.5,329.8,374.3,329.4,374.3,329z M374.8,348.9v-14.3     h2v14.3H374.8z"></path>
			<path fill="#FFFFFF" d="M388.8,349.5c-1,0-2-0.2-2.9-0.6c-0.9-0.4-1.8-1-2.5-1.7c-0.7-0.7-1.3-1.5-1.6-2.5     c-0.4-0.9-0.6-1.9-0.6-3c0-1,0.2-2,0.6-3c0.4-0.9,0.9-1.8,1.7-2.5c0.7-0.7,1.6-1.3,2.5-1.7c0.9-0.4,1.9-0.6,3-0.6     c1.1,0,2.1,0.2,3,0.6c1,0.4,1.8,0.9,2.5,1.7c0.7,0.7,1.3,1.6,1.7,2.5c0.4,0.9,0.6,1.9,0.6,3s-0.2,2-0.6,2.9     c-0.4,0.9-0.9,1.8-1.7,2.5c-0.8,0.8-1.6,1.3-2.6,1.7C390.8,349.3,389.8,349.5,388.8,349.5z M388.9,347.7c1.6,0,2.9-0.6,4-1.7     c1.1-1.1,1.6-2.5,1.6-4.2c0-1.7-0.5-3.1-1.6-4.2c-1.1-1.1-2.4-1.7-4-1.7c-1.6,0-2.9,0.6-4,1.7c-1.1,1.1-1.6,2.5-1.6,4.2     c0,1.6,0.5,3,1.6,4.2C386,347.1,387.3,347.7,388.9,347.7z"></path>
			<path fill="#FFFFFF" d="M400.7,348.9v-14.3h1.9v2.2c0.6-0.9,1.3-1.6,2.1-2.1c0.8-0.5,1.8-0.7,2.9-0.7c1.6,0,2.9,0.5,3.8,1.4     c0.9,0.9,1.4,2.2,1.4,3.8v9.7h-2v-8.8c0-1.4-0.3-2.5-0.9-3.2c-0.6-0.7-1.5-1-2.8-1c-1.5,0-2.6,0.4-3.3,1.3     c-0.7,0.9-1.1,2.3-1.1,4.2v7.5H400.7z"></path>
			<path fill="#FFFFFF" d="M430.2,341.8h-11.4c0.1,1.8,0.5,3.3,1.4,4.4c0.9,1.1,2,1.6,3.5,1.6c1.1,0,2-0.3,2.8-0.9     c0.8-0.6,1.5-1.4,2-2.6l1.8,1c-0.7,1.5-1.6,2.5-2.7,3.2c-1.1,0.7-2.4,1-3.9,1c-2.1,0-3.8-0.7-5.1-2.1c-1.3-1.4-1.9-3.2-1.9-5.5     c0-2.3,0.6-4.2,1.9-5.7c1.3-1.4,3-2.2,5-2.2c2,0,3.6,0.7,4.8,2c1.2,1.3,1.8,3.1,1.8,5.3V341.8z M427.9,340.1     c-0.1-1.3-0.5-2.3-1.3-3c-0.8-0.7-1.8-1.1-3.1-1.1c-1.2,0-2.2,0.4-3,1.1c-0.8,0.8-1.3,1.8-1.4,3H427.9z"></path>
			<path fill="#FFFFFF" d="M444.3,348.9v-12.6h-2.7v-1.7h2.7v-4.1c0-2.9,0.3-4.7,0.8-5.6s1.5-1.3,3-1.3c0.4,0,0.7,0,1,0.1     c0.3,0.1,0.6,0.1,0.9,0.3l-0.4,1.7c-0.3-0.1-0.5-0.2-0.7-0.3c-0.2-0.1-0.5-0.1-0.7-0.1c-0.7,0-1.2,0.3-1.5,0.8     c-0.3,0.6-0.4,1.6-0.4,3.1v5.4h3.1v1.7h-3.1v12.6H444.3z"></path>
			<path fill="#FFFFFF" d="M463,348.9v-2.6c-0.5,1.1-1.1,1.9-2,2.4c-0.9,0.6-1.9,0.8-3,0.8c-2.1,0-3.7-0.7-5-2.1     c-1.3-1.4-1.9-3.3-1.9-5.6c0-2.3,0.6-4.2,1.9-5.6c1.2-1.4,2.8-2.2,4.8-2.2c1.2,0,2.3,0.3,3.2,0.8c0.9,0.5,1.6,1.3,2.1,2.3v-2.6h2     v14.3H463z M453.3,341.9c0,1.8,0.4,3.3,1.2,4.3c0.8,1,2,1.5,3.6,1.5c1.5,0,2.7-0.5,3.6-1.6c0.9-1.1,1.3-2.6,1.3-4.5     c0-1.8-0.4-3.1-1.3-4.1c-0.9-1-2-1.5-3.5-1.5s-2.7,0.5-3.5,1.6C453.8,338.5,453.3,340,453.3,341.9z"></path>
			<path fill="#FFFFFF" d="M482,348.9h-2v-25h2V348.9z"></path>
			<path fill="#FFFFFF" d="M498,348.9v-2.6c-0.5,1.1-1.1,1.9-2,2.4c-0.9,0.6-1.9,0.8-3,0.8c-2.1,0-3.7-0.7-5-2.1     c-1.3-1.4-1.9-3.3-1.9-5.6c0-2.3,0.6-4.2,1.9-5.6c1.2-1.4,2.8-2.2,4.8-2.2c1.2,0,2.3,0.3,3.2,0.8c0.9,0.5,1.6,1.3,2.1,2.3v-2.6h2     v14.3H498z M488.3,341.9c0,1.8,0.4,3.3,1.2,4.3c0.8,1,2,1.5,3.6,1.5c1.5,0,2.7-0.5,3.6-1.6c0.9-1.1,1.3-2.6,1.3-4.5     c0-1.8-0.4-3.1-1.3-4.1c-0.9-1-2-1.5-3.5-1.5s-2.7,0.5-3.5,1.6C488.7,338.5,488.3,340,488.3,341.9z"></path>
			<path fill="#FFFFFF" d="M516.9,348.9h-2v-25h2V348.9z"></path>
			<path fill="#FFFFFF" d="M524.3,334.6v7.1c0,2.2,0.3,3.7,0.9,4.6c0.6,0.9,1.7,1.3,3.1,1.3c1.5,0,2.5-0.5,3.1-1.4     c0.6-0.9,1-2.4,1-4.6v-7.1h2v8.2c0,2.2-0.5,3.9-1.5,5.1c-1,1.1-2.5,1.7-4.5,1.7c-2,0-3.5-0.6-4.5-1.7c-1-1.1-1.5-2.8-1.5-5.1     v-8.2H524.3z"></path>
			<path fill="#FFFFFF" d="M550.9,337.2c-0.7-0.5-1.4-0.8-2.1-1c-0.8-0.2-1.5-0.3-2.3-0.3c-1.8,0-3.2,0.6-4.2,1.7     c-1.1,1.1-1.6,2.6-1.6,4.5c0,1.7,0.5,3.1,1.6,4.1c1.1,1.1,2.5,1.6,4.2,1.6c0.8,0,1.6-0.1,2.3-0.4s1.6-0.7,2.3-1.2v2.2     c-0.7,0.4-1.5,0.7-2.3,0.9c-0.8,0.2-1.8,0.3-2.7,0.3c-2.2,0-4-0.7-5.4-2.2c-1.4-1.4-2.1-3.3-2.1-5.5c0-2.3,0.7-4.2,2.2-5.7     c1.5-1.5,3.4-2.2,5.7-2.2c0.9,0,1.7,0.1,2.4,0.3c0.8,0.2,1.4,0.4,2,0.7L550.9,337.2z"></path>
			<path fill="#FFFFFF" d="M567.1,341.8h-11.4c0.1,1.8,0.5,3.3,1.4,4.4c0.9,1.1,2,1.6,3.5,1.6c1.1,0,2-0.3,2.8-0.9     c0.8-0.6,1.5-1.4,2-2.6l1.8,1c-0.7,1.5-1.6,2.5-2.7,3.2c-1.1,0.7-2.4,1-3.9,1c-2.1,0-3.8-0.7-5.1-2.1c-1.3-1.4-1.9-3.2-1.9-5.5     c0-2.3,0.6-4.2,1.9-5.7c1.3-1.4,3-2.2,5-2.2c2,0,3.6,0.7,4.8,2c1.2,1.3,1.8,3.1,1.8,5.3V341.8z M564.8,340.1     c-0.1-1.3-0.5-2.3-1.3-3c-0.8-0.7-1.8-1.1-3.1-1.1c-1.2,0-2.2,0.4-3,1.1c-0.8,0.8-1.3,1.8-1.4,3H564.8z"></path>
			<path fill="#FFFFFF" d="M571.7,347.5c0-0.5,0.2-0.9,0.5-1.2c0.3-0.3,0.7-0.5,1.2-0.5c0.5,0,0.9,0.2,1.2,0.5     c0.3,0.3,0.5,0.7,0.5,1.2c0,0.5-0.2,0.9-0.5,1.2c-0.3,0.3-0.7,0.5-1.2,0.5c-0.5,0-0.9-0.2-1.2-0.5     C571.9,348.4,571.7,348,571.7,347.5z"></path>
		</g>
		<g>
			<path fill="#FFFFFF" d="M367.7,305.7H350l-13.6-21v21h-14.2V251h22.1c3,0,5.7,0.4,8,1.3c2.3,0.9,4.1,2.1,5.6,3.7     c1.5,1.5,2.6,3.3,3.3,5.4c0.8,2,1.1,4.2,1.1,6.5c0,4.2-1,7.5-3,10.1c-2,2.6-5,4.3-8.9,5.3L367.7,305.7z M336.5,275.4h2.7     c2.8,0,5-0.6,6.5-1.7c1.5-1.2,2.2-2.8,2.2-5c0-2.2-0.8-3.8-2.2-5c-1.5-1.2-3.7-1.7-6.5-1.7h-2.7V275.4z"></path>
			<path fill="#FFFFFF" d="M410.1,296.2h-20.3l-3.3,9.5h-15.2l20.8-54.7h15.5l20.8,54.7h-15.2L410.1,296.2z M406.4,285.4l-6.4-18.2     l-6.4,18.2H406.4z"></path>
			<path fill="#FFFFFF" d="M449,251v54.7h-14.2V251H449z"></path>
			<path fill="#FFFFFF" d="M459.6,305.7V251h14.2l26.3,33.4V251h14.1v54.7H500l-26.3-33.4v33.4H459.6z"></path>
			<path fill="#FFFFFF" d="M556.6,296.2h-20.3l-3.3,9.5h-15.2l20.8-54.7h15.5l20.8,54.7h-15.2L556.6,296.2z M552.8,285.4l-6.4-18.2     l-6.4,18.2H552.8z"></path>
			<g>
				<path fill="#FFFFFF" d="M310.6,289.3c-1.4,3.4-3.5,6.4-6.2,9c-2.8,2.7-5.8,4.7-9.3,6.1c-1.1,0.5-2.3,0.9-3.5,1.2h20.1v-19.5      C311.4,287.2,311,288.3,310.6,289.3z"></path>
				<path fill="#FFFFFF" d="M295.2,252.6c3.4,1.3,6.5,3.4,9.2,6c2.8,2.7,4.8,5.8,6.2,9.1c0.4,1,0.8,2.1,1.1,3.2v-44.3l-24.2,24.2      C290.2,251,292.8,251.6,295.2,252.6z"></path>
				<path fill="#FFFFFF" d="M299.9,285.8c0.9-2.1,1.3-4.3,1.3-6.6s-0.4-4.6-1.3-6.6c-0.9-2.1-2.1-4-3.8-5.6      c-1.6-1.6-3.4-2.9-5.5-3.7c-2.1-0.9-4.2-1.3-6.6-1.3c-2.3,0-4.5,0.4-6.5,1.3c-2,0.8-3.9,2.1-5.5,3.7c-1.6,1.7-2.9,3.5-3.8,5.6      c-0.8,2.1-1.3,4.3-1.3,6.6s0.4,4.6,1.3,6.6c0.9,2.1,2.1,4,3.8,5.6c1.6,1.6,3.4,2.9,5.4,3.8c2.1,0.9,4.2,1.3,6.6,1.3      c2.3,0,4.5-0.4,6.5-1.3c2.1-0.9,3.9-2.1,5.6-3.8C297.9,289.8,299.1,287.9,299.9,285.8z"></path>
				<path fill="#FFFFFF" d="M273.2,304.5c-3.4-1.4-6.6-3.4-9.3-6.1c-2.8-2.7-4.8-5.8-6.2-9.1c-0.9-2.2-1.6-4.5-1.9-6.9l-23.3,23.3      h44.2C275.6,305.4,274.4,305,273.2,304.5z"></path>
			</g>
			<g>
				<path fill="#FFFFFF" d="M62.7,257.4c-3.1-1.7-6.6-2.6-10.5-2.6c-6.5,0-11.8,2.2-15.9,6.6c-4,4.4-6.1,10.1-6.1,17.1      c0,3.2,0.5,6.1,1.6,8.8c1.1,2.8,2.6,5.3,4.8,7.4c2.1,2.1,4.5,3.7,7.1,4.8c2.6,1.1,5.4,1.6,8.6,1.6c5.9,0,10.7-1.8,14.3-5.2      c3.7-3.5,5.6-8,5.7-13.6H54.1v-4.1h23.4v0.6c0,8.4-2.3,14.9-6.8,19.6c-4.6,4.8-10.9,7.1-18.9,7.1c-7.9,0-14.4-2.5-19.3-7.6      c-4.9-5.1-7.4-11.8-7.4-20c0-3.7,0.7-7.3,1.9-10.7c1.2-3.3,3-6.2,5.4-8.7c2.5-2.7,5.4-4.7,8.6-6.1c3.2-1.3,6.8-2,10.7-2      c5.4,0,9.9,0.9,13.7,2.9c3.7,1.9,6.7,4.8,8.7,8.5l-3.5,3C68.4,261.6,65.8,259.1,62.7,257.4z"></path>
				<path fill="#FFFFFF" d="M115.4,305.7L96,279.4h-3v26.3h-5v-55.1h10.1c6,0,10.5,1.2,13.4,3.7c3,2.5,4.5,6.3,4.5,11.3      c0,4.3-1.2,7.6-3.8,10.1c-2.5,2.5-6.1,3.7-10.6,3.7l19.8,26.3H115.4z M93,275.3h5c4.7,0,7.9-0.8,9.8-2.2c1.9-1.5,2.8-4,2.8-7.6      c0-3.8-1-6.5-2.9-8.1c-1.9-1.6-5.2-2.4-9.7-2.4h-5V275.3z"></path>
				<path fill="#FFFFFF" d="M131.6,250.5v35.1c0,5.3,1.2,9.2,3.6,11.8c2.4,2.6,6.2,3.9,11.1,3.9s8.6-1.3,11-3.9      c2.4-2.6,3.6-6.5,3.6-11.8v-35.1h4.9V284c0,7.3-1.6,12.7-4.8,16.3c-3.2,3.5-8.2,5.3-14.7,5.3s-11.5-1.8-14.7-5.3      c-3.2-3.6-4.8-9-4.8-16.3v-33.5H131.6z"></path>
				<path fill="#FFFFFF" d="M176.4,250.5h10c4,0,6.9,0.2,8.8,0.6c1.9,0.5,3.5,1.2,4.9,2.2c1.8,1.2,3,2.9,4,5.2      c0.9,2.2,1.5,4.6,1.5,7.2c0,5.2-1.5,9.1-4.4,11.6c-2.9,2.4-7.6,3.6-14,3.6h-5.8v24.7h-5V250.5z M184.8,276.5      c6.1,0,10.2-0.8,12.3-2.3c2.1-1.5,3.2-4.2,3.2-8.1c0-1.6-0.2-3.2-0.7-4.5c-0.5-1.3-1.2-2.5-2.2-3.6c-1-1.1-2.3-1.9-4-2.3      c-1.7-0.5-4.5-0.7-8.6-0.7h-3.4v21.6H184.8z"></path>
				<path fill="#FFFFFF" d="M216.1,250.5h10c4,0,6.9,0.2,8.8,0.6c1.9,0.5,3.5,1.2,4.9,2.2c1.8,1.2,3,2.9,4,5.2      c0.9,2.2,1.5,4.6,1.5,7.2c0,5.2-1.5,9.1-4.4,11.6c-2.9,2.4-7.6,3.6-14,3.6h-5.8v24.7h-5V250.5z M224.5,276.5      c6.1,0,10.2-0.8,12.3-2.3c2.1-1.5,3.2-4.2,3.2-8.1c0-1.6-0.2-3.2-0.7-4.5c-0.5-1.3-1.2-2.5-2.2-3.6c-1-1.1-2.3-1.9-4-2.3      c-1.7-0.5-4.5-0.7-8.6-0.7h-3.4v21.6H224.5z"></path>
			</g>
		</g>
	</g>
</g>
</svg>
