<?xml version="1.0" encoding="utf-8"?>
<!-- Generator: Adobe Illustrator 15.1.0, SVG Export Plug-In . SVG Version: 6.00 Build 0)  -->
<!DOCTYPE svg PUBLIC "-//W3C//DTD SVG 1.1//EN" "http://www.w3.org/Graphics/SVG/1.1/DTD/svg11.dtd">
<svg version="1.1" id="Livello_1" xmlns="http://www.w3.org/2000/svg" xmlns:xlink="http://www.w3.org/1999/xlink" x="0px" y="0px"
	 width="683.333px" height="126px" viewBox="0 0 683.333 126" enable-background="new 0 0 683.333 126" xml:space="preserve">
<path d="M230.745,63.113c0,17.396,14.103,31.5,31.5,31.5s31.5-14.104,31.5-31.5s-14.103-31.5-31.5-31.5
	C244.848,31.614,230.745,45.717,230.745,63.113L230.745,63.113z M203.245,63.113c0-32.585,26.415-59,59-59s59,26.415,59,59
	c0,32.586-26.415,59-59,59C229.659,122.113,203.245,95.699,203.245,63.113L203.245,63.113z"/>
<polygon points="147.745,6.613 175.245,6.613 175.245,92.113 209.745,92.113 209.745,119.613 147.745,119.613 "/>
<polygon points="351.745,6.613 394.245,69.813 394.245,6.613 421.745,6.613 421.745,119.613 393.844,119.613 351.745,57.014 
	351.745,119.613 323.543,119.613 323.543,6.613 "/>
<path d="M479.543,56.113v21.2h31.201l0,0c-5.201,10.302-15.4,17.302-27.701,17.302c-17.299,0-31.5-14.199-31.5-31.5
	c0-17.3,14.201-31.5,31.5-31.5c8.4,0,16.5,3.8,22.201,9.2h32.396l0,0c-8.396-22.3-29.396-36.7-54.602-36.7c-32.5,0-59,26.5-59,59
	s26.5,59,59,59s59-26.5,59-59c0-2.4-0.199-4.7-0.5-7h-61.996V56.113z"/>
<polygon points="544.444,6.613 572.245,6.613 572.245,50.313 609.745,50.313 609.745,6.613 637.444,6.613 637.444,119.613 
	609.745,119.613 609.745,75.813 572.245,75.813 572.245,119.613 544.444,119.613 "/>
<polygon points="651.543,119.613 679.245,119.613 679.245,6.613 651.543,6.613 "/>
<path d="M4.195,6.613v113h112.551v-113H4.195z M99.745,102.613h-39.7v-57h19.7v37.2h20V102.613z M99.746,43.311h-59.2v19.5h17.199
	v20.003H40.546v19.797h-19.8v-79h79V43.311z"/>
</svg>
